<svg xmlns="http://www.w3.org/2000/svg" viewBox="0 0 32 32">
  <rect width="32" height="32" fill="#030810"/>
  <!-- Outer ring -->
  <circle cx="16" cy="16" r="14" fill="none" stroke="#00d4ff" stroke-width="1.5" opacity="0.8"/>
  <!-- Oil drop shape -->
  <path d="M16 6 C16 6, 10 14, 10 19 C10 22.3 12.7 25 16 25 C19.3 25 22 22.3 22 19 C22 14, 16 6, 16 6Z"
        fill="#00d4ff" opacity="0.9"/>
  <!-- Inner highlight -->
  <path d="M14 16 C13 18, 13 20, 14.5 21.5" fill="none" stroke="#030810" stroke-width="1.5" stroke-linecap="round" opacity="0.7"/>
  <!-- Corner brackets: top-left -->
  <path d="M2 8 L2 2 L8 2" fill="none" stroke="#00d4ff" stroke-width="1" opacity="0.5"/>
  <!-- Corner brackets: top-right -->
  <path d="M24 2 L30 2 L30 8" fill="none" stroke="#00d4ff" stroke-width="1" opacity="0.5"/>
  <!-- Corner brackets: bottom-left -->
  <path d="M2 24 L2 30 L8 30" fill="none" stroke="#00d4ff" stroke-width="1" opacity="0.5"/>
  <!-- Corner brackets: bottom-right -->
  <path d="M24 30 L30 30 L30 24" fill="none" stroke="#00d4ff" stroke-width="1" opacity="0.5"/>
</svg>
